<?xml version="1.0" encoding="UTF-8"?>
<svg width="64px" height="76px" viewBox="0 0 64 76" version="1.1" xmlns="http://www.w3.org/2000/svg" xmlns:xlink="http://www.w3.org/1999/xlink">
    <!-- Generator: Sketch 51.2 (57519) - http://www.bohemiancoding.com/sketch -->
    <title>icon-2</title>
    <desc>Created with Sketch.</desc>
    <defs></defs>
    <g id="Pages" stroke="none" stroke-width="1" fill="none" fill-rule="evenodd">
        <g id="Index-1200" transform="translate(-1008.000000, -1092.000000)" fill="#81B3D2">
            <g id="content" transform="translate(40.000000, 622.000000)">
                <g id="icon-2" transform="translate(968.000000, 469.000000)">
                    <g id="Shape">
                        <path d="M61.097,23.501 L36.312,23.501 C50.125,16.602 51.229,12.25 50.72,9.816 C49.558,5.853 45.028,2.793 40.718,4.409 C35.149,6.498 33.581,14.797 32.074,20.796 C30.15,14.726 28.29,6.982 23.938,3.059 C22.677,1.921 20.843,0.795 18.175,1.031 C14.149,1.387 8.373,6.413 10.717,12.012 C12.968,17.39 20.404,20.789 25.295,23.501 L2.879,23.501 C1.29354898,23.5026342 0.00715074489,24.7845643 0,26.37 L0,37.692 C0.00715074489,39.2774357 1.29354898,40.5593658 2.879,40.561 L3.153,40.561 L3.153,77 L60.994,77 L60.994,40.561 L61.097,40.561 C62.6828412,40.5599156 63.969847,39.2778255 63.977,37.692 L63.977,26.37 C63.969847,24.7841745 62.6828412,23.5020844 61.097,23.501 Z M42.413,6.944 C44.516,6.634 47.395,8.243 47.668,10.153 C48.061,12.909 44.268,15.408 42.582,16.574 C40.059,18.318 37.654,19.217 35.295,20.629 C36.179,16.939 37.844,7.618 42.413,6.944 Z M19.531,16.912 C17.306,15.427 12.987,12.481 13.091,9.141 C13.203,5.546 18.834,2.571 21.905,5.255 C25.761,8.626 27.618,16.36 29.024,21.812 C25.775,20.273 22.696,19.024 19.531,16.912 Z M25.503,74.026 L6.136,74.026 L6.136,40.561 L25.504,40.561 L25.504,74.026 L25.503,74.026 Z M25.503,37.524 L3.046,37.524 L3.046,26.538 L25.503,26.538 L25.503,37.524 Z M35.66,37.524 L35.66,74.027 L28.486,74.027 L28.486,26.538 L35.66,26.538 L35.66,37.524 Z M58.011,74.026 L38.644,74.026 L38.644,40.561 L58.011,40.561 L58.011,74.026 Z M60.931,37.524 L38.644,37.524 L38.644,26.538 L60.931,26.538 L60.931,37.524 Z"></path>
                    </g>
                </g>
            </g>
        </g>
    </g>
</svg>