<?xml version="1.0" encoding="UTF-8"?>
<svg width="75px" height="70px" viewBox="0 0 75 70" version="1.1" xmlns="http://www.w3.org/2000/svg" xmlns:xlink="http://www.w3.org/1999/xlink">
    <!-- Generator: Sketch 51.2 (57519) - http://www.bohemiancoding.com/sketch -->
    <title>icon-3</title>
    <desc>Created with Sketch.</desc>
    <defs></defs>
    <g id="Pages" stroke="none" stroke-width="1" fill="none" fill-rule="evenodd">
        <g id="Index-1200" transform="translate(-602.000000, -1097.000000)" fill="#81B3D2">
            <g id="content" transform="translate(40.000000, 622.000000)">
                <g id="icon-3" transform="translate(562.000000, 475.000000)">
                    <g>
                        <path d="M70.854,46.71 L5.051,46.71 C2.777,46.71 0.916,48.65 0.916,51.023 L0.916,54.527 C0.916,56.899 2.777,58.84 5.051,58.84 L5.981,58.84 L5.981,59.893 C5.981,65.429 10.322,69.958 15.629,69.958 L60.275,69.958 C65.581,69.958 69.923,65.429 69.923,59.893 L69.923,58.84 L70.853,58.84 C73.127,58.84 74.988,56.899 74.988,54.527 L74.988,51.023 C74.988,48.65 73.128,46.71 70.854,46.71 Z M67.006,59.894 C67.006,63.765 63.987,66.915 60.276,66.915 L15.629,66.915 C11.918,66.915 8.898,63.765 8.898,59.894 L8.898,58.841 L67.005,58.841 L67.005,59.894 L67.006,59.894 Z M72.071,54.527 C72.071,55.215 71.513,55.798 70.853,55.798 L5.051,55.798 C4.391,55.798 3.834,55.216 3.834,54.527 L3.834,51.023 C3.834,50.335 4.392,49.752 5.051,49.752 L70.853,49.752 C71.513,49.752 72.071,50.334 72.071,51.023 L72.071,54.527 Z M16.634,38.406 L21.957,42.465 L27.283,38.406 L32.611,42.465 L37.939,38.406 L43.267,42.465 L48.596,38.406 L53.923,42.465 L59.253,38.405 L64.589,42.464 L70.783,37.752 L69.063,35.293 L64.589,38.696 L59.253,34.639 L53.923,38.695 L48.596,34.638 L43.267,38.695 L37.939,34.638 L32.611,38.695 L27.283,34.638 L21.958,38.695 L16.635,34.638 L11.308,38.695 L6.841,35.294 L5.12,37.751 L11.308,42.465 L16.634,38.406 Z M8.978,31.544 L69.855,31.544 C69.896,30.925 69.924,30.303 69.924,29.674 C69.924,29.28 69.908,28.891 69.892,28.501 C69.227,12.657 55.186,0 37.952,0 C20.719,0 6.677,12.657 6.013,28.501 C5.996,28.891 5.981,29.281 5.981,29.674 C5.981,30.303 6.009,30.925 6.051,31.544 L8.978,31.544 Z M37.952,3.043 C53.543,3.043 66.302,14.359 66.973,28.501 L8.931,28.501 C9.604,14.359 22.361,3.043 37.952,3.043 Z" id="Shape" fill-rule="nonzero"></path>
                        <ellipse id="Oval" fill-rule="nonzero" cx="37.952" cy="15.26" rx="1.945" ry="2.03"></ellipse>
                        <ellipse id="Oval" fill-rule="nonzero" cx="30.172" cy="10.23" rx="1.946" ry="2.03"></ellipse>
                        <ellipse id="Oval" fill-rule="nonzero" cx="45.732" cy="10.23" rx="1.946" ry="2.03"></ellipse>
                    </g>
                </g>
            </g>
        </g>
    </g>
</svg>