<?xml version="1.0" encoding="UTF-8"?>
<svg width="75px" height="72px" viewBox="0 0 75 72" version="1.1" xmlns="http://www.w3.org/2000/svg" xmlns:xlink="http://www.w3.org/1999/xlink">
    <!-- Generator: Sketch 51.2 (57519) - http://www.bohemiancoding.com/sketch -->
    <title>icon-1</title>
    <desc>Created with Sketch.</desc>
    <defs></defs>
    <g id="Pages" stroke="none" stroke-width="1" fill="none" fill-rule="evenodd">
        <g id="Index-1200" transform="translate(-202.000000, -1096.000000)" fill="#81B3D2">
            <g id="content" transform="translate(40.000000, 622.000000)">
                <g id="icon-1" transform="translate(162.000000, 474.000000)">
                    <g id="Shape">
                        <path d="M29.656,65.033 L45.656,65.033 L45.656,41.21 L29.656,41.21 L29.656,65.033 Z M32.593,44.134 L42.718,44.134 L42.718,62.11 L32.593,62.11 L32.593,44.134 Z" fill-rule="nonzero"></path>
                        <path d="M72.771,39.253 L74.847,37.185 L64.939,27.32 L64.939,0 L51.127,0 L51.127,13.567 L37.5,0 L0.152,37.185 L2.229,39.253 L10.061,31.458 L10.061,69.076 L6.124,69.076 L6.124,72 L69.999,72 L69.999,69.076 L64.94,69.076 L64.94,31.458 L72.771,39.253 Z M62.002,69.076 L12.999,69.076 L12.999,28.534 L37.5,4.149 L62.002,28.534 L62.002,69.076 Z M62.002,24.394 L54.064,16.492 L54.064,2.924 L62.002,2.924 L62.002,24.394 Z" fill-rule="nonzero"></path>
                        <path d="M29.906,27.08 C29.906,31.341 33.376,34.793 37.656,34.793 C41.935,34.793 45.406,31.341 45.406,27.08 C45.406,22.821 41.935,19.367 37.656,19.367 C33.375,19.367 29.906,22.821 29.906,27.08 Z M37.656,22.135 C40.4,22.135 42.625,24.349 42.625,27.08 C42.625,29.812 40.4,32.028 37.656,32.028 C34.91,32.028 32.686,29.812 32.686,27.08 C32.686,24.349 34.911,22.135 37.656,22.135 Z M17.061,41.21 L20.061,41.21 L20.061,45.129 L17.061,45.129 L17.061,41.21 Z M22.999,41.21 L25.999,41.21 L25.999,45.129 L22.999,45.129 L22.999,41.21 Z M17.061,47.182 L20.061,47.182 L20.061,51.101 L17.061,51.101 L17.061,47.182 Z M22.999,47.182 L25.999,47.182 L25.999,51.101 L22.999,51.101 L22.999,47.182 Z M48.998,41.21 L51.998,41.21 L51.998,45.129 L48.998,45.129 L48.998,41.21 Z M54.936,41.21 L57.936,41.21 L57.936,45.129 L54.936,45.129 L54.936,41.21 Z M48.998,47.182 L51.998,47.182 L51.998,51.101 L48.998,51.101 L48.998,47.182 Z M54.936,47.182 L57.936,47.182 L57.936,51.101 L54.936,51.101 L54.936,47.182 Z" fill-rule="nonzero"></path>
                    </g>
                </g>
            </g>
        </g>
    </g>
</svg>