<?xml version="1.0" encoding="UTF-8"?>
<svg width="138px" height="70px" viewBox="0 0 138 70" version="1.1" xmlns="http://www.w3.org/2000/svg" xmlns:xlink="http://www.w3.org/1999/xlink">
    <!-- Generator: Sketch 51.2 (57519) - http://www.bohemiancoding.com/sketch -->
    <title>logo</title>
    <desc>Created with Sketch.</desc>
    <defs></defs>
    <g id="Pages" stroke="none" stroke-width="1" fill="none" fill-rule="evenodd">
        <g id="Index-1200" transform="translate(-571.000000, 0.000000)" fill-rule="nonzero">
            <g id="top-menu" transform="translate(40.000000, 0.000000)">
                <g id="logo" transform="translate(531.000000, 0.000000)">
                    <path d="M138,0 L0,0 L59.51,65.68 C64.73,71.441 73.27,71.441 78.49,65.68 L138,0 Z" id="Shape" fill="#81B3D3"></path>
                    <polygon id="Shape" fill="#23A9E1" points="36.687 0.457 68.835 38.336 100.855 0.686"></polygon>
                    <path d="M61.1,14.719 L78.42,14.719 C77.13,13.919 74.065,10.137 72.377,11.543 C72.24,11.658 67.506,5.799 64.395,8.622 C61.682,11.088 60.422,8.299 57.347,10.252 C53.842,12.57 59.373,13.936 61.1,14.719 M87.83,11.241 L77.97,11.295 C81.866,6.795 83.617,7.277 87.83,11.241" id="Shape" fill="#FFFFFF"></path>
                    <path d="M97.622,3.588 L97.622,1.154 L99.702,1.154 L97.622,3.588 Z M48.377,12.998 L48.467,13.081 C48.491,13.057 50.794,10.57 54.45,8.117 C57.817,5.858 63.042,3.173 68.833,3.205 C74.611,3.233 79.91,5.927 83.339,8.182 C87.004,10.592 89.366,13.022 89.471,13.132 L86.956,16.077 C82.468,16.693 79.254,20.022 74.879,19.294 C72.674,18.928 72.608,17.662 71.977,16.401 C71.493,15.432 70.721,15.555 69.714,15.161 C68.777,14.795 68.235,14.033 66.363,14.473 C64.721,14.858 64.541,17.406 62.498,17.26 C61.402,17.181 61.323,15.639 59.743,13.664 C55.653,8.749 51.851,9.429 49.196,13.972 L68.834,37.302 L48.377,12.998 Z M40.011,1.153 L40.011,3.06 L38.407,1.154 L40.011,1.153 Z M93.887,1.153 L97.114,1.153 L97.114,4.183 L93.887,7.96 L93.887,1.153 Z M89.832,12.61 L89.832,1.154 L93.378,1.154 L93.378,8.558 L89.878,12.656 C89.8631875,12.6401546 89.8478454,12.6248125 89.832,12.61 Z M89.324,2.221 L89.324,12.115 C88.1956305,11.0533419 87.0080639,10.0564137 85.767,9.129 L89.324,2.221 Z M85.159,1.863 L85.159,8.682 C84.696,8.348 84.209,8.009 83.694,7.67 C83.03,7.232 82.294,6.778 81.5,6.33 L85.159,1.863 Z M80.847,1.73 L80.847,5.97 C79.8335582,5.42431295 78.7921201,4.93230018 77.727,4.496 L80.847,1.73 Z M81.355,1.154 L85.082,1.154 L81.355,5.704 L81.355,1.154 Z M85.667,1.154 L89.3,1.154 L85.666,8.214 L85.667,1.154 Z M76.87,1.154 L80.73,1.154 L77.2,4.282 C77.091,4.24 76.979,4.201 76.869,4.16 L76.869,1.154 L76.87,1.154 Z M76.361,1.571 L76.361,3.974 C75.3470705,3.6143024 74.3117356,3.318063 73.261,3.087 L76.361,1.571 Z M72.158,1.613 L72.158,2.873 C71.4364379,2.75190629 70.7091546,2.66779643 69.979,2.621 L72.158,1.613 Z M65.392,1.574 L67.64,2.616 C66.878,2.659 66.128,2.746 65.392,2.869 L65.392,1.574 Z M61.272,1.571 L64.337,3.069 C63.277,3.298 62.254,3.597 61.271,3.944 L61.272,1.571 Z M64.882,2.771 L61.578,1.154 L64.883,1.154 L64.882,2.771 Z M68.448,2.429 L65.694,1.154 L68.448,1.154 L68.448,2.429 Z M69.057,1.154 L71.938,1.154 L69.057,2.488 L69.057,1.154 Z M72.816,1.154 L76.056,1.154 L72.816,2.738 L72.816,1.154 Z M60.405,4.265 L56.895,1.155 L60.764,1.155 L60.764,4.13 L60.405,4.265 Z M56.787,1.738 L59.88,4.479 C58.8226963,4.91873273 57.7901629,5.41580428 56.787,5.968 L56.787,1.738 Z M52.475,1.866 L56.115,6.346 C54.8538884,7.0747283 53.6383069,7.87955008 52.475,8.756 L52.475,1.866 Z M48.31,2.224 L51.896,9.198 C50.6354244,10.1716729 49.4376997,11.2241075 48.31,12.349 L48.31,2.224 Z M51.966,8.224 L48.332,1.154 L51.966,1.154 L51.966,8.224 Z M56.278,5.739 L52.552,1.154 L56.278,1.154 L56.278,5.739 Z M43.747,7.497 L40.52,3.664 L40.52,1.154 L43.747,1.154 L43.747,7.497 Z M44.255,1.154 L47.8,1.154 L47.8,12.314 L44.254,8.102 L44.255,1.154 Z M69.055,0.001 L36,0.001 L36,14.583 L68.836,54.52 L69.056,54.245 L102,15.04 L102,0 L69.055,0.001 Z" id="Shape" fill="#491213"></path>
                    <polygon id="Shape" fill="#23A9E1" points="66.227 46.026 68.837 41.806 71.435 46.026 68.837 50.256"></polygon>
                    <path d="M74.218,30.556 C70.785,28.536 71.654,27.033 74.448,25.631 C75.91,24.897 79.202,22.251 80.581,23.132 L74.218,30.556 M71.884,33.073 C69.838,32.978 67.554,32.708 65.622,33.128 C66.829,33.43 69.773,34.293 67.032,35.022 C68.015,36.429 69.61,36.339 70.656,35.104 C70.231,34.895 70.001,34.638 69.649,34.418 C70.734,34.222 71.749,33.596 71.884,33.073 M73.119,31.499 C72.186,30.703 71.242,30.659 70.373,31.499 C69.208,29.362 64.973,30.078 62.994,29.779 C64.059,32.393 72.644,32.881 73.118,31.499 M66.345,29.348 C64.78,28.863 59.505,28.984 62.957,27.554 C64.022,27.113 69.55,27.617 66.345,29.348 M68.257,26.318 C67.78,25.241 68.622,23.958 69.997,24.89 C71.196,25.703 69.445,26.907 68.257,26.318 M65.421,26.409 C63.156,27.088 60.148,25.625 63.791,24.889 C66.052,24.433 68.457,25.395 65.421,26.409 C65.512,26.382 65.337,26.437 65.421,26.409 M62.756,20.175 C62.211,21.799 61.223,22.102 61.333,20.13 C61.459,17.856 62.942,18.401 64.533,17.53 C65.857,16.804 66.571,14.145 68.843,15.735 C69.857,16.445 71.019,15.851 71.343,16.925 C71.327,16.871 68.393,23.617 70.025,23.617 C66.805,23.617 68.225,19.772 69.457,17.191 C68.259,17.765 66.314,21.532 67.911,22.152 C67.08,23.247 64.539,24.713 63.215,23.644 C62.209,22.834 62.768,21.486 62.756,20.174 M58.793,22.985 C53.197,22.939 56.98,14.337 58.884,14.857 C61.074,15.553 60.828,23.051 58.793,22.985 M52.623,14.839 C49.999,14.73 51.097,12.272 52.88,11.718 C54.575,11.19 58.13,12.832 59.27,13.923 C57.462,14.478 55.124,14.399 53.136,14.491 C52.99,12.465 52.516,13.171 52.624,14.839" id="Shape" fill="#DC6243"></path>
                    <path d="M71.774,25.832 C68.866,22.845 76.116,23.12 77.284,22.069 C78.134,22.353 84.274,16.692 85.769,17.044 C84.695,18.304 82.381,22.326 80.722,22.326 C79.447,22.326 78.157,22.136 77.17,23.044 C75.726,24.374 73.333,25.05 71.774,25.832" id="Shape" fill="#F49774"></path>
                    <path d="M72.727,22.18 C71.135,23.036 69.629,19.644 72.378,19.974 C74.204,20.194 76.054,19.82 77.798,20.121 C76.547,21.608 74.742,22.427 72.727,22.18" id="Shape" fill="#F4B1A4"></path>
                    <path d="M51.113,20.935 C51.446,21.336 51.691,21.769 51.636,22.309 C51.598,22.684 51.029,23.315 51.461,23.507 L52.916,21.667 C52.526,21.569 49.434,17.871 49.384,17.466 L47.333,18.592 C47.439,19.021 48.173,18.595 48.536,18.622 C49.074,18.66 49.462,18.985 49.804,19.369 C48.684,20.309 45.954,22.626 45.666,22.674 C45.52,22.697 44.96,22.284 44.952,22.637 C44.948,22.807 45.505,23.296 45.611,23.423 L47.058,25.145 C47.459,24.962 46.986,24.67 47.191,24.338 C47.341,24.095 50.372,21.568 51.113,20.935 Z M47.69,16.404 C47.977,16.342 48.095,16.686 48.312,16.368 L46.722,14.474 C46.481,14.187 46.176,13.879 46.263,14.486 C46.321,14.895 42.294,18.163 42.048,18.264 C41.738,18.392 41.556,17.994 41.328,18.327 C41.803,18.891 42.276,19.456 42.752,20.02 C42.912,20.21 43.061,20.417 43.237,20.593 C43.457,20.813 43.372,20.156 43.382,20.213 C43.322,19.88 43.724,19.597 43.937,19.416 C44.941,18.532 47.442,16.437 47.69,16.404 Z M41.996,15.809 C40.849,16.149 39.626,15.702 39.265,14.483 C38.912,13.292 39.663,12.044 40.609,11.366 C41.544,10.696 42.939,10.736 43.449,11.91 C43.673,12.43 43.551,13.018 43.388,13.535 C43.283,13.863 43,14.184 43.423,14.371 C43.983,13.66 44.541,12.95 45.099,12.238 C44.415,11.828 44.114,11.146 43.606,10.554 C43.034,9.858 42.266,9.204 41.346,9.071 C39.482,8.807 37.726,10.731 37.584,12.476 C37.495,13.422 37.826,14.325 38.392,15.073 C38.879,15.718 39.605,16.127 39.973,16.861 C40.143,16.923 41.729,16.191 42.106,16.046 C42.073,15.974 42.049,15.868 41.996,15.809 C41.502,15.955 41.996,15.809 41.996,15.809 Z M67.508,39.445 C66.761,38.946 64.895,36.401 64.539,35.977 L64.326,35.724 C64.319,35.714 64.141,35.869 64.166,35.848 C64.054,35.942 64.252,36.22 64.132,36.408 C63.617,37.214 60.394,39.644 60.227,39.76 C59.867,40.01 59.471,39.657 59.26,39.966 C59.727,40.52 61.065,42.266 61.22,42.291 C61.531,42.341 61.316,41.761 61.356,41.642 C61.436,41.402 63.066,40.054 63.66,39.558 C63.878,39.375 64.107,39.834 64.237,40.026 C64.449,40.341 64.544,40.676 64.43,41.045 C64.355,41.285 63.965,41.642 64.268,41.807 C64.67,41.337 65.801,40.019 65.964,39.827 C66.128,39.637 65.597,39.804 65.66,39.771 C65.42,39.895 65.194,39.924 64.97,39.753 C64.907,39.706 64.263,39.051 64.327,38.996 C64.607,38.761 64.95,38.371 65.311,38.282 C65.871,38.144 66.338,39.266 66.421,39.664 C66.499,40.039 66.488,40.434 66.371,40.8 C66.291,41.051 66.055,41.252 66.383,41.404 L67.766,39.508 C67.6756931,39.5126449 67.5860027,39.4907438 67.508,39.445 C67.425,39.389 67.598,39.49 67.508,39.445 Z M58.281,30.524 C57.5532744,30.5661992 56.8591716,30.8446127 56.304,31.317 C54.874,32.52 54.688,34.592 55.812,36.07 C57.104,37.772 59.186,37.965 60.871,36.764 C62.301,35.559 62.483,33.482 61.371,31.998 C60.613,30.988 59.439,30.458 58.281,30.524 Z M59.471,31.91 C60.42,31.802 60.974,32.709 60.57,33.678 C60.15,34.658 59.14,35.667 58.146,36.058 C56.966,36.523 56.135,35.521 56.615,34.401 C57.037,33.417 58.045,32.418 59.041,32.021 C59.191,31.962 59.335,31.926 59.471,31.911 L59.471,31.91 Z M56.688,27.28 C56.996,27.318 57.289,27.636 57.512,27.307 L56.065,25.595 C55.679,25.769 56.095,25.951 55.939,26.225 C55.781,26.502 54.277,26.732 53.877,26.803 C54.023,26.385 54.457,25.105 54.629,24.963 C54.982,24.673 55.202,25.243 55.461,24.871 L53.681,22.759 C53.481,22.521 53.319,22.092 53.045,22.318 C53.069,22.298 53.048,23.273 52.987,23.443 C52.931,23.596 52.379,25.804 51.737,26.344 C51.417,26.614 50.284,27.6 49.982,27.706 C49.632,27.828 49.447,27.317 49.19,27.681 L50.807,29.601 C50.889,29.697 51.198,30.161 51.305,30.181 C51.644,30.241 51.345,29.601 51.379,29.475 C51.477,29.195 53.002,27.71 53.649,27.619 C54.597,27.486 55.726,27.164 56.688,27.279 C56.908,27.306 56.459,27.251 56.688,27.279 L56.688,27.28 Z M80.927,34.049 C81.051,34.47 81.121,34.914 81.067,35.354 C80.997,35.92 80.431,37.252 79.656,36.873 C78.896,36.5 78.231,35.751 77.586,35.216 C78.106,34.608 78.564,34.081 79.439,34.376 C79.679,34.456 79.885,34.352 79.633,34.206 C79.37,34.053 77.611,32.93 77.516,33.037 C77.341,33.239 77.859,33.601 77.659,33.994 C77.511,34.284 77.263,34.534 77.054,34.784 C76.587,34.39 75.806,33.971 76.369,33.32 C76.721,32.892 77.18,32.56 77.73,32.45 C78.098,32.375 78.925,32.702 79.032,32.304 C78.327,31.964 77.622,31.627 76.917,31.288 C77.032,31.808 74.744,34.225 74.236,34.836 C74.162,34.924 73.809,35.231 73.805,35.353 C73.799,35.631 74.208,35.415 74.232,35.407 C74.547,35.291 78.656,38.724 78.758,38.959 C78.823,39.141 78.614,39.332 78.738,39.434 C78.732,39.428 78.886,39.574 78.903,39.554 C79.156,39.25 81.839,35.674 82.392,35.518 C81.8750088,34.7303613 81.3626665,33.9396809 80.855,33.146 C80.472,33.314 80.842,33.762 80.927,34.049 Z M76.927,38.401 C75.579,37.531 73.294,39.231 72.951,39.395 C72.276,39.714 71.789,39.042 72.139,38.42 C72.443,37.88 73.043,37.619 73.639,37.583 C73.819,37.573 74.514,37.711 74.585,37.6 C74.669,37.469 74.733,37.458 74.613,37.376 C74.056,37.001 73.501,36.626 72.946,36.25 C72.831,36.935 72.046,37.371 71.598,37.835 C71.064,38.39 70.611,39.088 70.611,39.885 C70.611,40.621 71.052,41.275 71.7,41.611 C72.437,41.995 73.205,41.687 73.858,41.28 C74.265,41.025 74.672,40.724 75.107,40.52 C75.753,40.217 76.602,40.479 76.374,41.344 C76.191,42.04 75.498,42.681 74.814,42.863 C74.414,42.969 73.989,42.933 73.598,42.804 C73.318,42.713 72.953,42.328 72.799,42.732 L75.059,44.379 C75.127,43.886 75.399,43.671 75.765,43.364 C76.242,42.945 76.698,42.506 77.059,41.981 C77.812,40.881 78.059,39.343 76.927,38.401 Z M94.544,10.336 C94.5089138,10.3519539 94.4785857,10.3767678 94.456,10.408 L93.666,11.358 L92.852,12.34 C92.684,12.544 92.503,12.636 92.827,12.807 C93.37,12.535 96.345,17.575 96.079,18.299 C95.609,18.543 91.589,15.016 91.481,14.783 C91.448,14.688 91.659,14.121 91.345,14.17 C91.196,14.193 90.861,14.753 90.767,14.867 L90.19,15.562 C90.406,15.877 90.526,15.549 90.813,15.59 C91.062,15.64 92.011,16.454 92.269,16.67 C91.799,16.687 90.526,16.756 90.364,16.744 C89.778,16.817 90.089,16.313 89.704,16.139 L88.226,17.934 L87.366,18.977 C87.331,19.019 87.336,18.997 87.397,19.049 C87.612,19.226 87.465,19.158 87.767,19.053 C88.095,18.938 92.023,22.253 92.165,22.422 C92.41,22.714 92.065,23.055 92.433,23.215 L93.601,21.797 C93.66,21.725 93.692,21.731 93.614,21.667 C93.337,21.439 93.305,21.805 92.964,21.767 C92.618,21.71 90.109,19.581 89.136,18.775 L94.458,18.578 C94.653,18.571 95.198,19.159 95.153,19.368 C95.101,19.612 94.852,19.729 95.187,19.883 C95.498,19.509 95.827,19.137 96.132,18.758 L96.28,18.574 C96.3376848,18.5278672 96.3838936,18.4689937 96.415,18.402 L96.525,18.265 C96.8,17.951 97.694,16.962 97.587,16.869 C97.287,16.609 97.141,17.171 96.743,16.834 C96.517,16.672 95.95,15.674 95.808,15.432 C95.636,15.14 96.202,14.849 96.433,14.705 C96.937,14.392 98.54,13.938 98.693,14.932 C98.718,15.099 98.516,15.289 98.638,15.389 C98.666,15.413 98.771,15.545 98.814,15.494 L100.956,12.918 C100.893,12.865 100.821,12.771 100.746,12.742 C100.272,13.215 95.28,11.222 94.916,10.947 C94.75,10.881 94.724,10.274 94.544,10.336 Z M94.319,12.889 C95.083,13.207 95.845,13.527 96.606,13.849 C96.376,13.913 96.159,14.015 95.958,14.142 L95.956,14.142 C95.7318858,14.2843062 95.5236934,14.4502567 95.335,14.637 L94.319,12.889 Z M87.731,20.642 C86.624,20.566 85.501,21.052 84.708,21.959 C83.473,23.459 83.596,25.637 85.101,26.904 C86.619,28.154 88.781,27.836 90.017,26.354 C91.249,24.858 91.164,22.674 89.632,21.42 C89.0974299,20.9653561 88.431915,20.6928453 87.732,20.642 L87.731,20.642 Z M86.282,22.201 C86.904,22.239 87.592,22.615 88.024,22.904 C88.804,23.425 90.238,24.591 89.501,25.642 C89.549,25.584 89.584,25.545 89.451,25.712 C89.4454814,25.7184628 89.4394628,25.7244814 89.433,25.73 C88.633,26.57 87.253,25.793 86.509,25.256 C85.764,24.718 84.487,23.588 85.302,22.592 C85.559,22.278 85.909,22.178 86.282,22.201 Z M83.155,26.481 C81.941,26.414 80.752,26.977 79.856,28.057 C79.214,28.828 78.574,29.601 77.934,30.373 C78.162,30.705 78.429,30.295 78.761,30.486 C79.044,30.649 82.814,33.798 82.876,33.971 C82.982,34.268 82.711,34.327 82.97,34.539 C83.081,34.632 85.914,31.134 86.173,30.519 C86.621,29.38 86.264,28.132 85.353,27.344 C85.426,27.404 85.53,27.489 85.311,27.307 C84.621,26.789 83.884,26.52 83.155,26.48 L83.155,26.481 Z M82.102,28.061 C82.197,28.064 82.286,28.077 82.368,28.098 C83.79,28.461 85.752,30.213 84.497,31.726 C84.341,31.919 84.468,31.761 84.065,32.148 C83.867,32.338 79.886,29.114 80.045,28.939 C80.52,28.418 81.441,28.035 82.102,28.06 L82.102,28.061 Z" id="Shape" fill="#FFFFFF"></path>
                </g>
            </g>
        </g>
    </g>
</svg>