<?xml version="1.0" encoding="UTF-8"?>
<svg width="17px" height="15px" viewBox="0 0 17 15" version="1.1" xmlns="http://www.w3.org/2000/svg" xmlns:xlink="http://www.w3.org/1999/xlink">
    <!-- Generator: Sketch 51.2 (57519) - http://www.bohemiancoding.com/sketch -->
    <title>twitter</title>
    <desc>Created with Sketch.</desc>
    <defs></defs>
    <g id="Pages" stroke="none" stroke-width="1" fill="none" fill-rule="evenodd">
        <g id="Index-1200" transform="translate(-579.000000, -2695.000000)" fill="#FFFFFF">
            <g id="footer" transform="translate(40.000000, 2642.000000)">
                <g id="twitter" transform="translate(539.000000, 52.000000)">
                    <g id="Shape">
                        <path d="M10.95,1.144 C12.635,0.648 13.934,1.414 14.527,2.323 C15.2,2.092 15.858,1.842 16.538,1.615 C16.5248923,2.3013655 16.2116836,2.94751829 15.681,3.383 C16.366,3.553 16.985,2.892 16.985,2.892 C16.816,3.892 15.979,4.68 15.422,4.916 C15.191,11.666 12.247,16.133 5.345,15.998 L4.899,15.998 C4.489,15.998 0.735,15.538 0.001,14.111 C2.272,14.307 3.894,13.689 4.694,12.934 C3.734,12.634 2.015,12.457 1.715,9.984 C2.064,10.09 2.279,10.212 2.905,10.103 C1.705,9.247 0.374,8.53 0.448,6.33 C0.733,6.658 1.515,6.866 1.788,6.802 C1.085,6.561 -0.182,3.442 0.894,1.85 C2.712,3.704 4.629,5.456 8.046,5.623 C8.254,3.33 9.183,1.793 10.95,1.144 Z" fill-rule="nonzero"></path>
                    </g>
                </g>
            </g>
        </g>
    </g>
</svg>