<?xml version="1.0" encoding="UTF-8"?>
<svg width="457px" height="352px" viewBox="0 0 457 352" version="1.1" xmlns="http://www.w3.org/2000/svg" xmlns:xlink="http://www.w3.org/1999/xlink">
    <!-- Generator: Sketch 51.2 (57519) - http://www.bohemiancoding.com/sketch -->
    <title>welcome</title>
    <desc>Created with Sketch.</desc>
    <defs></defs>
    <g id="Pages" stroke="none" stroke-width="1" fill="none" fill-rule="evenodd">
        <g id="Index-1200" transform="translate(-411.000000, -132.000000)" fill-rule="nonzero">
            <g id="intro" transform="translate(40.000000, -24.000000)">
                <g id="welcome" transform="translate(371.000000, 156.000000)">
                    <path d="M152.31,56.094 L149.465,60.969 L146.735,60.969 L145.865,62.404 L148.622,62.404 L142.554,72.787 C141.276,74.996 142.177,77.034 144.615,77.034 C146.369,77.034 148.306,75.73 150.172,73.961 C150.166,77.763 155.513,78.506 158.782,74.422 L159.448,74.422 C161.248,74.422 164.092,73.332 165.632,71.526 C165.432,71.122 164.91,70.665 164.504,70.493 L164.299,70.721 C162.935,72.184 161.252,72.899 159.741,72.928 L162.586,68.082 C164.414,64.955 162.731,62.002 159.885,62.002 C157.563,62.002 155.765,62.918 154.023,65.902 L152.543,68.455 L151.306,70.545 L151.15,70.721 C148.974,73.217 146.852,75.196 145.517,75.196 C144.85,75.196 144.472,74.736 145.169,73.561 L151.645,62.403 L154.11,62.403 L154.982,60.967 L152.483,60.967 L155.329,56.094 L152.31,56.094 Z M159.841,63.93 C160.825,64.02 161.291,65.225 160.263,66.967 L158.059,70.694 L157.914,70.694 C156.927,70.694 156.144,71.498 156.144,72.473 C156.144,72.844 156.26,73.189 156.435,73.477 L156.405,73.533 C154.983,75.943 151.526,75.484 153.326,72.387 L155.62,68.459 L157.071,66.022 C157.998,64.466 159.076,63.86 159.841,63.93 Z M181.774,56.09 L178.929,60.967 L176.2,60.967 L175.33,62.401 L178.087,62.401 L172.018,72.784 C170.741,74.992 171.642,77.03 174.08,77.03 C175.303,77.03 176.618,76.393 177.933,75.409 L177.155,76.743 L180.201,76.743 L184.789,68.856 C189.433,63.089 191.495,63.836 190.188,66.046 L186.268,72.786 C184.99,74.996 185.891,77.034 188.329,77.034 C190.125,77.034 192.117,75.664 194.022,73.829 C194.168,75.686 195.689,77.034 198.112,77.034 C201.535,77.034 204.932,74.394 207.428,71.526 C207.231,71.123 206.709,70.665 206.302,70.493 L206.099,70.719 C203.921,73.216 201.135,75.194 199.017,75.194 C197.157,75.194 196.053,74.048 197.447,71.639 L197.737,71.119 C199.683,71.924 203.341,71.55 205.605,67.679 L206.042,66.932 C207.667,64.179 206.1,62.114 203.632,62.114 C201.193,62.114 199.249,63.377 197.972,65.555 L195.042,70.52 L194.866,70.72 C192.689,73.214 190.571,75.192 189.235,75.192 C188.569,75.192 188.189,74.732 188.885,73.557 L193.24,66.014 C194.546,63.749 193.3,62.114 191.616,62.114 C190.309,62.114 188.914,62.831 187.406,64.379 L192.224,56.09 L189.205,56.09 L180.782,70.528 L180.612,70.718 C178.436,73.214 176.315,75.192 174.979,75.192 C174.312,75.192 173.935,74.732 174.633,73.557 L181.105,62.399 L183.572,62.399 L184.444,60.966 L181.948,60.966 L184.793,56.091 L181.774,56.09 Z M203.086,64.332 C204.055,64.275 204.587,65.192 203.575,66.936 L203.138,67.682 C201.688,70.12 199.741,70.062 198.608,69.66 L200.554,66.303 C201.317,65.011 202.334,64.377 203.086,64.333 L203.086,64.332 Z M247.404,58.869 C245.69,60.389 245.546,62.083 246.621,63.459 L246.883,63.803 C245.548,65.668 243.748,68.19 241.773,70.487 L241.775,70.49 L241.572,70.719 C240.207,72.18 238.526,72.899 237.014,72.928 L239.857,68.08 C241.687,64.954 240.004,62 237.157,62 C234.837,62 233.037,62.918 231.297,65.9 L229.813,68.453 L228.575,70.545 L228.421,70.721 C225.924,73.561 223.778,75.392 221.396,76.397 L228.159,64.983 L226.389,64.983 C226.389,63.749 225.113,62.113 223.225,62.113 C221.601,62.113 219.335,63.378 218.057,65.557 L213.819,72.784 C212.541,74.992 213.441,77.03 215.879,77.03 C216.722,77.03 217.739,76.656 218.756,76.026 L217.913,77.43 C213.849,78.663 211.293,80.298 211.293,82.536 C211.293,85.405 215.735,86.007 217.913,82.336 L220.205,78.406 C222.621,77.663 224.988,76.259 227.445,73.942 C227.424,77.759 232.782,78.509 236.055,74.418 L236.723,74.418 C238.523,74.418 241.368,73.329 242.907,71.522 C244.356,69.858 245.487,68.367 247.897,65.127 L248.302,65.616 C248.679,66.103 248.827,66.706 248.477,67.307 L245.284,72.786 C244.004,74.996 244.905,77.032 247.345,77.032 C248.875,77.032 250.549,76.037 252.187,74.61 C252.137,75.996 253.074,77.032 254.806,77.032 C255.646,77.032 256.663,76.659 257.68,76.028 L256.838,77.43 C252.773,78.663 250.222,80.298 250.222,82.536 C250.222,85.405 254.662,86.006 256.838,82.336 L259.13,78.406 C261.59,77.648 264,76.2 266.507,73.807 C266.643,75.675 268.165,77.032 270.597,77.032 C273.055,77.032 275.496,75.669 277.601,73.842 C277.484,77.747 282.911,78.545 286.213,74.42 L286.881,74.42 C287.826,74.42 289.056,74.112 290.238,73.567 C289.425,75.64 290.172,77.032 291.899,77.032 C293.555,77.032 295.412,75.54 296.863,74.164 C296.573,75.769 297.53,77.032 299.447,77.032 C301.943,77.032 304.817,74.395 307.315,71.526 L307.313,71.524 C309.025,69.572 310.536,67.481 311.611,66.076 C310.421,69.172 311.056,74.736 308.185,74.736 C307.169,74.736 306.765,73.646 306.765,73.646 L304.875,74.621 C304.875,74.621 305.426,77.033 308.185,77.033 C308.475,77.033 308.737,77.003 309.025,76.973 C309.055,76.973 309.086,76.946 309.116,76.946 C312.192,76.546 315.24,74.136 317.504,71.526 C317.331,71.067 316.808,70.608 316.374,70.492 L316.171,70.721 C315.106038,71.95327 313.885877,73.0423386 312.541,73.961 C313.498,71.121 313.296,66.761 315.155,62.947 L312.891,61.742 C311.641,63.435 308.914,67.335 306.185,70.49 L306.185,70.492 L305.982,70.721 C303.806,73.217 301.687,75.193 300.351,75.193 C299.684,75.193 299.306,74.734 300.004,73.559 L306.448,62.401 L303.428,62.401 L298.058,71.666 C295.765,73.73 293.996,74.878 293.414,74.619 C292.66,74.305 293.414,73.186 293.792,72.555 L299.685,62.403 L296.665,62.403 L291.931,70.495 L291.732,70.721 C290.368,72.184 288.685,72.901 287.174,72.931 L290.019,68.082 C291.847,64.955 290.169,62.002 287.32,62.002 C284.997,62.002 283.197,62.92 281.456,65.905 L279.974,68.455 L278.737,70.545 L278.582,70.723 C276.406,73.219 273.618,75.196 271.499,75.196 C269.641,75.196 268.539,74.05 269.932,71.641 L270.222,71.123 C272.166,71.927 275.826,71.553 278.089,67.68 L278.527,66.934 C280.15,64.18 278.585,62.115 276.117,62.115 C273.677,62.115 271.73,63.38 270.454,65.559 L267.528,70.524 L267.353,70.721 C264.854,73.561 262.708,75.394 260.325,76.399 L267.089,64.983 L265.317,64.983 C265.317,63.749 264.04,62.115 262.153,62.115 C260.528,62.115 258.264,63.378 256.986,65.557 L254.09,70.494 L254.082,70.49 L253.879,70.72 C251.703,73.215 249.581,75.194 248.245,75.194 C247.578,75.194 247.203,74.734 247.899,73.559 L250.917,68.339 C251.962,66.532 251.468,65.469 250.48,64.293 L248.797,62.283 C248.362,61.738 248.362,61.137 248.972,60.563 L247.404,58.869 Z M237.11,63.929 C238.094,64.019 238.561,65.225 237.534,66.967 L235.33,70.694 L235.183,70.694 C234.197,70.694 233.413,71.498 233.413,72.473 C233.413,72.844 233.529,73.189 233.703,73.477 L233.675,73.533 C232.253,75.943 228.797,75.484 230.597,72.387 L232.889,68.459 L234.342,66.022 C235.27,64.466 236.346,63.86 237.11,63.93 L237.11,63.929 Z M287.268,63.929 C288.252,64.019 288.721,65.225 287.694,66.967 L285.488,70.694 L285.341,70.694 C284.355,70.694 283.573,71.498 283.573,72.473 C283.573,72.844 283.689,73.189 283.862,73.477 L283.832,73.533 C282.411,75.943 278.957,75.484 280.757,72.387 L283.049,68.459 L284.5,66.022 C285.427,64.466 286.503,63.86 287.268,63.93 L287.268,63.929 Z M275.568,64.334 C276.536,64.277 277.065,65.193 276.053,66.936 L275.618,67.682 C274.167,70.12 272.221,70.062 271.088,69.66 L273.036,66.305 C273.798,65.013 274.816,64.379 275.568,64.335 L275.568,64.334 Z M223.165,64.535 C224.188,64.529 224.843,65.419 224.01,66.935 L221.718,70.895 C219.888,73.792 218.058,75.195 216.78,75.195 C216.113,75.195 215.735,74.736 216.431,73.561 L220.643,66.305 C221.353,65.088 222.37,64.54 223.165,64.535 Z M262.088,64.535 C263.111,64.529 263.766,65.419 262.933,66.935 L260.641,70.895 C258.813,73.792 256.981,75.195 255.705,75.195 C255.038,75.195 254.662,74.736 255.356,73.561 L259.566,66.305 C260.276,65.088 261.293,64.54 262.088,64.535 Z M216.75,79.443 L215.386,81.85 C214.748,82.968 213.732,82.797 213.732,81.994 C213.732,81.22 214.459,80.332 216.75,79.444 L216.75,79.443 Z M255.675,79.443 L254.313,81.85 C253.673,82.968 252.657,82.797 252.657,81.994 C252.657,81.22 253.383,80.332 255.675,79.444 L255.675,79.443 Z M101.025,67.831 L129.947,67.831 L129.947,69.781 L101.025,69.781 L101.025,67.831 Z M328.055,67.831 L356.977,67.831 L356.977,69.781 L328.055,69.781 L328.055,67.831 Z" id="Shape" fill="#766458"></path>
                    <path d="M322.7,37.364 L322.7,45.1 L301.884,45.1 L301.884,0.353 L322.7,0.353 L322.7,8.024 L309.499,8.024 L309.499,18.827 L320.034,18.827 L320.034,26.497 L309.499,26.497 L309.499,37.364 L322.7,37.364 Z M289.908,0.354 L297.459,0.354 L297.459,45.101 L289.843,45.101 L289.843,23.111 L286.796,34.489 L279.371,34.489 L276.389,23.111 L276.389,45.101 L268.772,45.101 L268.772,0.354 L276.324,0.354 L283.115,21.959 L289.908,0.354 Z M257.999,8.024 L252.476,8.024 L252.476,37.364 L258,37.364 L257.999,8.024 Z M260.981,0.354 C263.521,0.354 265.679,2.463 265.679,5.085 L265.679,40.37 C265.679,42.927 263.521,45.1 260.981,45.1 L249.557,45.1 C246.957,45.1 244.861,42.927 244.861,40.37 L244.861,5.085 C244.861,2.464 246.957,0.355 249.557,0.355 L260.981,0.354 Z M232.971,28.606 L240.649,26.816 L240.649,40.368 C240.649,42.925 238.492,45.098 235.953,45.098 L224.528,45.098 C221.928,45.098 219.833,42.925 219.833,40.368 L219.833,5.084 C219.833,2.462 221.928,0.354 224.528,0.354 L235.951,0.354 C238.491,0.354 240.648,2.462 240.648,5.084 L240.648,14.161 L232.97,15.951 L232.97,8.023 L227.448,8.023 L227.448,37.363 L232.97,37.363 L232.971,28.606 Z M216.17,37.364 L216.17,45.1 L197.957,45.1 L197.957,0.353 L205.573,0.353 L205.573,37.363 L216.17,37.364 Z M194.824,37.364 L194.824,45.1 L174.008,45.1 L174.008,0.353 L194.824,0.353 L194.824,8.023 L181.624,8.023 L181.624,18.827 L192.159,18.827 L192.159,26.497 L181.624,26.497 L181.624,37.363 L194.824,37.364 Z M162.564,0.354 L170.241,0.354 L169.037,45.1 L154.567,45.1 L152.599,26.626 L150.632,45.1 L136.099,45.1 L134.957,0.354 L142.573,0.354 L143.208,37.364 L144.032,37.364 L148.792,0.354 L156.344,0.354 L161.232,37.364 L161.994,37.364 L162.564,0.354 Z" id="Shape" fill="#81B3D3"></path>
                    <path d="M380.74,213.95 L406.172,139.976 L431.372,139.976 L457.036,213.95 L436.83,213.95 L433.114,200.595 L404.546,200.595 L400.714,213.95 L380.74,213.95 Z M416.392,161.808 L408.844,186.311 L428.934,186.311 L421.385,161.808 C420.986699,160.611674 420.599682,159.411621 420.224,158.208 C419.923837,156.937028 419.652766,155.659361 419.411,154.376 C419.256,153.911 419.14,153.486 419.063,153.098 C418.985,152.634 418.908,152.208 418.83,151.821 C418.753,152.208 418.637,152.634 418.482,153.098 C418.405,153.485 418.327,153.911 418.25,154.376 C418.172,154.531 418.134,154.686 418.134,154.84 C418.134,154.918 418.094,155.034 418.017,155.189 C417.791852,156.321825 417.520964,157.445077 417.205,158.556 C416.970524,159.648805 416.699371,160.733418 416.392,161.808 Z M298.712,213.95 L298.712,139.976 L318.222,139.976 L346.093,177.95 C346.813027,179.075078 347.47198,180.238094 348.067,181.434 C348.770815,182.608304 349.429299,183.809187 350.041,185.034 L351.435,188.054 C351.899,189.06 352.364,190.027 352.828,190.956 C352.755439,190.137723 352.639273,189.3239 352.48,188.518 C352.403,187.744 352.325,186.931 352.248,186.079 C352.090371,184.495297 351.973998,182.90776 351.899,181.318 C351.818678,179.654562 351.78,177.989374 351.783,176.324 L351.783,139.976 L371.176,139.976 L371.176,213.95 L351.783,213.95 L323.68,175.744 C322.906,174.815 322.17,173.731 321.474,172.493 C320.769673,171.16099 320.111285,169.805192 319.5,168.428 C319.050446,167.453149 318.585723,166.485365 318.106,165.525 C317.746596,164.584743 317.359426,163.655336 316.945,162.738 C317.332,165.138 317.642,167.577 317.874,170.054 C318.106,172.531 318.216,175.009 318.222,177.486 L318.222,213.95 L298.712,213.95 Z M210.703,158.966 C214.264,152.386 219.219,147.353 225.567,143.869 C231.915,140.385 238.535,138.643 245.425,138.643 C246.354,138.643 247.283,138.682 248.212,138.759 C249.219,138.837 250.186,138.914 251.115,138.992 C254.007178,139.38574 256.849203,140.086357 259.593,141.082 C262.44497,142.082224 265.172534,143.406916 267.722,145.03 C273.219,148.592 277.477,153.353 280.496,159.314 C283.515,165.198 285.025,171.354 285.025,177.778 C285.025,178.552 284.986,179.365 284.909,180.217 C284.909,180.991 284.831,181.765 284.676,182.54 C284.516388,184.190693 284.205414,185.823225 283.747,187.417 C283.34932,188.997708 282.844828,190.549607 282.237,192.062 C278.986,199.572 273.915,205.417 267.025,209.597 C260.135,213.7 252.895,215.752 245.309,215.752 C244.764936,215.751912 244.221566,215.713148 243.683,215.636 L242.173,215.636 C239.505726,215.397417 236.863757,214.931049 234.276,214.242 C231.703488,213.538333 229.212374,212.565283 226.844,211.339 C220.341,207.933 215.231,203.094 211.515,196.823 C207.799,190.475 205.941,183.894 205.941,177.081 C205.941,176.075 205.98,175.068 206.057,174.061 C206.134,173.055 206.289,172.011 206.522,170.926 C206.918571,168.876734 207.461632,166.858555 208.147,164.887 C208.824294,162.842251 209.679221,160.860692 210.702,158.965 L210.703,158.966 Z M263.542,185.559 C263.774,184.785 263.968,183.972 264.122,183.12 C264.355,182.269 264.51,181.417 264.587,180.565 C264.665,180.024 264.703,179.482 264.703,178.94 C264.781,178.398 264.819,177.894 264.819,177.43 C264.818881,176.962928 264.780081,176.496668 264.703,176.036 L264.703,174.643 C264.316,171.313 263.31,168.101 261.683,165.004 C260.058,161.907 257.813,159.507 254.948,157.804 C254.174,157.417 253.4,157.069 252.626,156.759 C251.852,156.449 251.077,156.179 250.303,155.946 C249.535133,155.79223 248.760208,155.676092 247.981,155.598 C247.216257,155.443838 246.438126,155.365791 245.658,155.365 C241.71,155.365 238.071,156.605 234.742,159.082 C231.413,161.559 229.09,164.849 227.774,168.952 L227.542,169.417 L227.542,169.881 C227.303087,170.603927 227.10938,171.341018 226.962,172.088 C226.807,172.785 226.652,173.52 226.497,174.294 L226.265,175.92 L226.265,178.359 C226.265,178.591 226.303,178.862 226.381,179.172 C226.613,183.275 227.851,187.185 230.097,190.901 C232.419,194.539 235.594,196.939 239.619,198.101 L241.013,198.565 C241.477,198.643 241.981,198.72 242.523,198.797 L243.916,199.03 L245.31,199.03 C249.413,199.03 253.09,197.83 256.342,195.43 C259.671,192.952 262.071,189.662 263.542,185.559 Z M181.386,206.982 C177.747,209.459 173.799,211.162 169.541,212.092 C165.283,213.022 160.986,213.602 156.651,213.834 C155.413842,213.911317 154.174572,213.950003 152.935,213.95 L129.129,213.95 L129.129,139.976 L154.213,139.976 C155.452,139.976 156.652,140.014 157.813,140.092 C161.993,140.324 166.097,140.905 170.123,141.834 C174.188648,142.746016 178.022939,144.485472 181.387,146.944 C185.722,149.963 189.09,153.95 191.49,158.904 C193.89,163.859 195.245,168.968 195.554,174.234 C195.632,174.698 195.671,175.162 195.671,175.627 L195.671,178.53 C195.438,184.027 194.122,189.33 191.722,194.44 C189.322,199.55 185.877,203.73 181.387,206.982 L181.386,206.982 Z M148.986,197.343 C149.218,197.343 149.451,197.382 149.683,197.459 L150.496,197.459 C150.806,197.459 151.076,197.499 151.309,197.576 L154.444,197.576 C155.296,197.498 156.109,197.421 156.883,197.343 C158.886506,197.189818 160.870069,196.839797 162.805,196.298 C164.741,195.756 166.483,194.943 168.031,193.859 C170.509,192.079 172.328,189.679 173.489,186.659 C174.721248,183.59538 175.352064,180.323147 175.347,177.021 L175.347,176.091 C175.347,175.782 175.309,175.472 175.231,175.163 C175.078572,172.229988 174.369284,169.352791 173.141,166.685 C171.902,163.898 170.199,161.692 168.031,160.065 C166.441275,158.767 164.573497,157.853301 162.573,157.395 C160.591964,156.924284 158.56899,156.651941 156.534,156.582 L148.986,156.582 L148.986,197.343 Z M69.076,213.949 L69.076,139.975 L114.482,139.975 L114.482,156.117 L88.934,156.117 L88.934,169.007 L112.973,169.007 L112.973,184.801 L88.934,184.801 L88.934,197.343 L114.482,197.343 L114.482,213.949 L69.076,213.949 Z M9.673,190.115 C9.75,190.193 9.789,190.27 9.789,190.348 C9.867,190.348 9.944,190.386 10.021,190.464 C12.111,192.786 14.473,194.954 17.105,196.967 C19.737,198.902 22.757,199.947 26.163,200.102 C26.241,200.102 26.318,200.142 26.395,200.219 L26.744,200.219 C26.821,200.219 26.899,200.257 26.976,200.335 L28.253,200.335 C28.641,200.257 28.989,200.18 29.299,200.102 C30.5399851,199.869045 31.7234931,199.395846 32.783,198.709 C33.943,198.012 34.834,197.16 35.453,196.154 L35.686,195.689 L35.918,195.225 C36.073,194.683 36.189,194.18 36.267,193.715 C36.344,193.251 36.383,192.825 36.383,192.438 C36.383,190.348 35.453,188.606 33.596,187.212 C31.8644913,185.769354 29.901028,184.630566 27.789,183.844 C26.9946936,183.550891 26.179372,183.318228 25.35,183.148 C24.6219367,182.927713 23.8861192,182.733919 23.144,182.567 L22.912,182.567 C22.834,182.49 22.757,182.451 22.68,182.451 C18.914449,181.533482 15.3114337,180.045265 11.996,178.038 C8.666,175.948 6.383,172.967 5.144,169.096 C4.90136725,168.285979 4.66901524,167.472913 4.447,166.657 C4.28805481,165.773126 4.17191934,164.882086 4.099,163.987 C4.02766222,163.721335 3.98871282,163.448017 3.983,163.173 L3.983,160.386 C4.06,159.767 4.176,159.148 4.331,158.528 C4.57140572,156.94667 4.96012005,155.391478 5.492,153.883 C6.034,152.335 6.731,150.941 7.582,149.703 C10.06,145.599 13.234,142.657 17.105,140.877 C21.054,139.096 25.157,138.206 29.415,138.206 C30.422,138.206 31.428,138.283 32.435,138.438 C33.522425,138.515697 34.6067673,138.63177 35.686,138.786 C38.5100003,139.261019 41.2743871,140.039875 43.931,141.109 C46.718,142.193 49.273,143.47 51.596,144.941 L45.209,159.225 C43.1246109,157.680553 40.9095605,156.320739 38.589,155.161 C36.267,153.999 33.751,153.419 31.041,153.419 L30.111,153.419 C28.331,153.651 26.667,154.464 25.118,155.857 C23.57,157.173 22.796,158.606 22.796,160.154 L22.796,160.851 C22.873,161.083 22.989,161.315 23.144,161.548 C23.299,162.09 23.57,162.593 23.957,163.058 C24.344,163.522 24.77,163.948 25.234,164.335 C26.086,165.032 27.324,165.69 28.951,166.309 C30.576,166.851 32.28,167.393 34.061,167.935 C35.531,168.322 36.963,168.709 38.357,169.096 C39.751,169.406 40.912,169.716 41.841,170.026 C46.176,171.574 49.428,174.167 51.596,177.806 C53.763,181.367 54.886,185.161 54.963,189.186 L54.963,189.767 C54.963,190.232 54.925,190.697 54.847,191.161 L54.847,192.438 C54.383,196.464 53.067,200.296 50.899,203.935 C48.809,207.574 45.983,210.361 42.422,212.297 C41.1002062,212.918298 39.7428384,213.460912 38.357,213.922 C36.9730134,214.307008 35.5792046,214.655794 34.177,214.968 C33.0270425,215.198565 31.8632181,215.353564 30.693,215.432 C29.5766945,215.583684 28.4515602,215.661187 27.325,215.664 L26.047,215.664 C21.402,215.51 16.835,214.503 12.344,212.644 C7.854,210.709 3.867,208.154 0.384,204.98 L9.673,190.115 Z M351.253,337.235 C351.253,336.941 351.31,336.649 351.423,336.358 C351.535,336.065 351.703,335.802 351.926,335.566 C352.161652,335.323138 352.442613,335.12881 352.753,334.994 C353.078,334.848 353.443,334.774 353.848,334.774 C354.298,334.774 354.73,334.858 355.146,335.026 C355.56,335.196 355.916,335.436 356.207,335.753 C356.454,336.045 356.644,336.393 356.779,336.797 C356.915,337.201 356.981,337.627 356.981,338.078 C356.981,338.928 356.83,339.717 356.526,340.436 C356.223272,341.154354 355.783014,341.806589 355.23,342.356 C354.971535,342.61253 354.689265,342.843905 354.387,343.047 C354.099688,343.243592 353.801551,343.423876 353.494,343.587 C353.214,343.731 352.974,343.851 352.768,343.939 C352.643302,343.992649 352.519932,344.049332 352.398,344.109 L351.048,342.119 C351.298,342.029 351.572,341.912 351.876,341.767 C352.179,341.621 352.466,341.441 352.733,341.228 C353.000918,341.016015 353.229698,340.758807 353.409,340.468 C353.589,340.176 353.689,339.839 353.713,339.458 C353.063,339.458 352.488,339.268 351.993,338.884 C351.5,338.504 351.253,337.953 351.253,337.235 Z M359.09,337.235 C359.09,336.942 359.147,336.649 359.257,336.358 C359.37,336.065 359.539,335.802 359.763,335.566 C359.99,335.331 360.263,335.138 360.588,334.994 C360.915,334.849 361.278,334.774 361.684,334.774 C362.134,334.774 362.567,334.858 362.981,335.026 C363.398,335.196 363.751,335.436 364.042,335.753 C364.292,336.045 364.482,336.393 364.616,336.797 C364.75,337.202 364.818,337.628 364.818,338.078 C364.826788,338.886631 364.672022,339.688694 364.363,340.436 C364.058931,341.154115 363.618077,341.806225 363.065,342.356 C362.806254,342.613019 362.523271,342.844428 362.22,343.047 C361.934235,343.245985 361.635951,343.426358 361.327,343.587 C361.047,343.732 360.807,343.851 360.602,343.939 C360.477494,343.993079 360.354134,344.049758 360.232,344.109 L358.884,342.119 C359.131,342.03 359.404,341.912 359.709,341.767 C360.013,341.621 360.299,341.441 360.569,341.228 C360.837,341.014 361.063,340.761 361.242,340.468 C361.423,340.176 361.524,339.84 361.546,339.458 C360.924232,339.468796 360.317537,339.266212 359.827,338.884 C359.337,338.504 359.09,337.953 359.09,337.236 L359.09,337.235 Z M94.53,278.519 C94.53,278.81 94.473,279.103 94.36,279.394 C94.2466637,279.689116 94.075669,279.958696 93.857,280.187 C93.3512325,280.702796 92.6563203,280.989 91.934,280.979 C91.4893964,280.980104 91.0488432,280.894507 90.637,280.727 C90.2343066,280.56687 89.8722419,280.319231 89.577,280.002 C89.3206691,279.693693 89.1261251,279.338896 89.004,278.957 C88.8680613,278.544023 88.7998464,278.11177 88.802,277.677 C88.802,276.825 88.954,276.037 89.257,275.317 C89.560388,274.59876 90.0009454,273.946585 90.554,273.397 C90.8118329,273.139666 91.0945496,272.908535 91.398,272.707 C91.6847095,272.509473 91.9829015,272.329156 92.291,272.167 C92.571,272.023 92.813,271.904 93.016,271.815 C93.219,271.728 93.342,271.67 93.386,271.648 L94.734,273.636 C94.4536321,273.740331 94.1783278,273.857794 93.909,273.988 C93.606,274.134 93.319,274.313 93.049,274.527 C92.779,274.74 92.556,274.993 92.376,275.285 C92.196,275.577 92.096,275.915 92.073,276.298 C92.723,276.298 93.297,276.488 93.791,276.87 C94.283,277.251 94.531,277.8 94.531,278.519 L94.53,278.519 Z M86.694,278.519 C86.6891603,279.14079 86.4486497,279.7376 86.021,280.189 C85.7853529,280.431159 85.5047962,280.625104 85.195,280.76 C84.869,280.906 84.503,280.98 84.099,280.98 C83.6540358,280.981492 83.2130811,280.895883 82.801,280.728 C82.3983855,280.567254 82.0363798,280.319314 81.741,280.002 C81.4839986,279.694149 81.2893794,279.339216 81.168,278.957 C81.0315607,278.544144 80.9633327,278.111808 80.966,277.677 C80.966,276.825 81.116,276.037 81.421,275.317 C81.7240251,274.598563 82.1646274,273.946322 82.718,273.397 C82.965,273.149 83.245,272.92 83.561,272.706 C83.875,272.494 84.173,272.313 84.454,272.166 C84.734,272.022 84.974,271.904 85.178,271.816 C85.38,271.725 85.505,271.669 85.55,271.646 L86.897,273.634 C86.649,273.724 86.375,273.842 86.071,273.987 C85.768,274.134 85.481,274.313 85.214,274.525 C84.9464511,274.736984 84.7177236,274.993795 84.538,275.284 C84.359,275.576 84.258,275.914 84.236,276.296 C84.886,276.296 85.46,276.486 85.954,276.869 C86.447,277.251 86.694,277.799 86.694,278.519 Z M332.044,335.393 L335.859,335.393 L347.701,314.757 L343.925,314.757 L332.044,335.393 Z M331.864,336.881 C330.628,336.881 329.682,337.861 329.682,339.099 C329.682,340.337 330.628,341.279 331.863,341.279 C333.095,341.279 334.08,340.335 334.08,339.099 C334.08,337.863 333.095,336.881 331.863,336.881 L331.864,336.881 Z M305.511,331.354 L306.601,329.466 C310.961,323.398 313.94,325.069 312.595,327.359 L310.78,330.483 C309.65,332.445 306.346,333.825 305.511,331.354 Z M330.603,334.334 C330.385,333.754 329.731,333.171 329.186,333.027 L328.931,333.319 C327.601731,334.878521 326.074871,336.25814 324.389,337.423 C325.587,333.827 325.332,328.305 327.657,323.473 L324.822,321.946 C323.262,324.089 319.846,329.03 316.43,333.027 C316.436,333.037 316.446,333.045 316.451,333.052 C316.437,333.046 316.421,333.032 316.406,333.027 L316.153,333.319 C313.426,336.479 310.776,338.985 309.103,338.985 C308.269,338.985 307.469,338.149 307.469,336.442 L307.469,334.88 C310.121,335.207 312.919,333.462 314.699,330.376 L315.715,328.633 C319.237,322.603 313.498,320.603 309.647,324.129 L315.022,314.792 L311.243,314.792 L300.468,333.487 C300.260597,333.303505 300.028715,333.149703 299.779,333.03 L299.523,333.322 C296.8,336.482 293.312,338.988 290.66,338.988 C288.335,338.988 286.955,337.535 288.699,334.484 L292.583,327.727 C294.763,323.985 298.615,324.603 296.361,328.527 L295.817,329.471 L298.907,329.471 L299.452,328.527 C301.486,325.039 299.523,322.423 296.437,322.423 C293.386,322.423 290.95,324.023 289.352,326.783 L285.634,333.163 C285.556,333.117 285.474,333.063 285.401,333.031 L285.146,333.323 C282.422,336.483 279.771,338.989 278.099,338.989 C277.263,338.989 276.793,338.409 277.663,336.919 L285.729,322.786 L281.949,322.786 L275.23,334.52 C272.357,337.135 270.145,338.588 269.416,338.262 C268.472,337.863 269.416,336.446 269.889,335.647 L277.263,322.786 L273.485,322.786 L266.147,335.481 C265.331,336.224 263.745,336.888 262.957,337.425 C264.156,333.829 263.901,328.307 266.226,323.475 L263.394,321.948 C261.831,324.091 253.111,335.646 249.696,339.641 C250.021,340.113 250.568,340.586 251.112,340.949 C253.255,338.479 260.45,329.215 261.794,327.435 C260.304,331.358 261.104,338.407 257.506,338.407 C256.236,338.407 255.726,337.025 255.726,337.025 L253.365,338.261 C253.365,338.261 254.055,341.311 257.505,341.311 C257.87,341.311 258.197,341.275 258.561,341.239 C258.596,341.239 258.632,341.203 258.667,341.203 C260.587,340.949 263.245,340.065 265.027,338.833 C265.015,340.37 265.943,341.311 267.527,341.311 C269.595,341.311 271.922,339.422 273.737,337.679 C273.376,339.714 274.572,341.311 276.972,341.311 C279.318,341.311 281.931,339.425 284.409,336.948 C284.443,339.458 286.377,341.311 289.535,341.311 C292.601,341.311 295.649,339.598 298.276,337.295 L296.171,340.949 L299.987,340.949 L304.31,333.429 L304.31,336.443 C304.31,339.675 304.927,341.311 307.98,341.311 C311.103,341.311 314.701,337.97 317.825,334.336 C317.819,334.326 317.807,334.315 317.805,334.302 C317.819,334.314 317.836,334.325 317.852,334.336 C319.996,331.866 321.886,329.213 323.227,327.432 C321.739,331.356 322.539,338.405 318.94,338.405 C317.67,338.405 317.16,337.023 317.16,337.023 L314.798,338.259 C314.798,338.259 315.489,341.309 318.94,341.309 C319.302,341.309 319.628,341.273 319.996,341.237 C320.03,341.237 320.065,341.202 320.101,341.202 C323.954,340.69 327.769,337.64 330.602,334.332 L330.603,334.334 Z M216.012,333.248 L215.829,333.248 C214.594,333.248 213.613,334.265 213.613,335.503 C213.613,335.975 213.758,336.41 213.976,336.772 L213.939,336.845 C212.16,339.895 207.836,339.315 210.089,335.391 L212.959,330.414 L214.775,327.326 C217.428,322.821 221.06,324.601 218.772,328.526 L216.012,333.248 Z M190.582,347.379 C189.782,348.796 188.51,348.579 188.51,347.563 C188.51,346.583 189.419,345.457 192.325,344.329 L190.582,347.379 Z M161.84,333.649 C159.552,337.244 157.299,338.952 155.737,338.952 C154.902,338.952 154.43,338.372 155.301,336.881 L160.568,327.688 C162.603,324.166 166.635,325.073 164.781,328.489 L161.84,333.649 Z M149.786,318.899 C150.912,316.972 152.148,316.137 153.201,316.137 C154.619,316.137 155.272,317.081 155.272,318.462 C155.272,321.986 150.908,329.295 145.1,328.343 L144.337,328.343 L149.786,318.899 Z M242.563,332.993 L242.309,333.285 C239.587,336.445 236.934,338.952 235.262,338.952 C234.426,338.952 233.955,338.372 234.826,336.88 L240.276,327.327 C241.912,324.457 240.346,322.386 238.241,322.386 C236.605,322.386 234.9,323.257 233.01,325.219 L234.427,322.75 L230.648,322.75 L224.56,333.283 C224.409594,333.170222 224.248094,333.073054 224.078,332.993 L223.823,333.285 C222.117,335.137 220.009,336.047 218.12,336.084 L221.68,329.944 C223.968,325.982 221.862,322.243 218.3,322.243 C215.393,322.243 213.142,323.405 210.961,327.183 L209.109,330.416 L207.489,333.186 C207.38016,333.113795 207.265807,333.050265 207.147,332.996 L206.893,333.287 C203.768,336.882 201.116,339.207 198.138,340.482 L208.493,322.752 L204.714,322.752 L198.031,334.378 C195.124,337.065 192.871,338.554 192.145,338.228 C191.201,337.83 192.145,336.412 192.617,335.612 L199.992,322.752 L196.214,322.752 L190.186,333.182 C190.080606,333.111303 189.969948,333.048786 189.855,332.995 L189.601,333.287 C186.876,336.447 184.225,338.954 182.553,338.954 C181.718,338.954 181.246,338.374 182.117,336.882 L187.566,327.329 C189.201,324.459 187.639,322.387 185.532,322.387 C183.897,322.387 182.189,323.259 180.301,325.221 L181.718,322.752 L177.938,322.752 L171.9,333.197 C171.785799,333.120384 171.665764,333.052844 171.541,332.995 L171.287,333.287 C168.564,336.447 165.912,338.954 164.239,338.954 C163.404,338.954 162.932,338.374 163.803,336.882 L169.907,326.202 L167.764,326.202 C167.909,324.604 166.274,322.388 163.803,322.388 C161.77,322.388 158.934,323.985 157.338,326.748 L153.435,333.484 C153.175,333.251 152.878,333.069 152.607,332.996 L152.353,333.288 C149.628,336.448 147.536,338.955 143.793,338.955 C141.214,338.955 139.653,336.376 141.903,332.524 L142.958,330.672 C143.648,330.779 144.339,330.856 145.1,330.856 C149.133,330.856 153.711,328.784 156.69,323.589 C157.743,321.736 158.216,319.993 158.216,318.503 C158.216,315.088 155.999,312.873 153.203,312.873 C151.132,312.873 148.661,314.327 146.955,317.305 L141.069,327.442 C138.853,326.279 137.689,324.172 137.689,322.064 C137.689,320.321 138.489,318.577 140.123,317.307 L138.888,315.089 C136.198,317.017 135.001,319.593 135.001,322.139 C135.001,325.152 136.709,328.059 139.759,329.657 L138.634,331.621 C135.983,336.199 137.544,341.283 142.884,341.283 C147.11,341.283 148.96,339.403 151.565,336.928 C150.742,339.302 151.938,341.283 154.613,341.283 C156.139,341.283 158.028,340.303 159.845,338.814 C160.025,340.268 161.189,341.283 163.113,341.283 C164.923,341.283 166.891,340.159 168.833,338.51 L167.441,340.921 L171.255,340.921 L177.031,330.858 C182.808,323.628 185.388,324.571 183.753,327.37 L178.849,335.904 C177.251,338.704 178.377,341.28 181.428,341.28 C183.461,341.28 185.694,339.86 187.868,337.87 C187.415,339.948 188.374,341.28 190.256,341.28 C192.073,341.28 194.142,339.754 195.851,338.23 L193.78,341.79 C188.657,343.314 185.46,345.423 185.46,348.255 C185.46,351.888 191.02,352.652 193.742,348.002 L196.648,343.024 C199.807,342.03 202.921,340.071 206.173,336.852 C205.653,342.129 212.681,343.332 216.919,337.974 L217.754,337.974 C219.134,337.974 221.002,337.454 222.688,336.524 L220.148,340.918 L223.963,340.918 L229.739,330.855 C235.516,323.625 238.096,324.568 236.46,327.366 L231.556,335.904 C229.958,338.703 231.083,341.28 234.136,341.28 C237.262,341.28 240.856,337.938 243.982,334.305 C243.727,333.794 243.074,333.212 242.564,332.994 L242.563,332.993 Z M361.194,297.421 C358.904,301.162 356.579,302.942 354.982,302.942 C354.147,302.942 353.675,302.362 354.545,300.872 L359.812,291.679 C361.847,288.155 365.879,289.064 364.026,292.479 L364.061,292.479 L361.194,297.421 Z M325.007,297.64 C322.717,301.234 320.464,302.942 318.903,302.942 C318.067,302.942 317.596,302.362 318.466,300.872 L323.734,291.679 C325.768,288.155 329.8,289.064 327.948,292.479 L325.007,297.64 Z M285.09,311.37 C284.293,312.787 283.02,312.57 283.02,311.554 C283.02,310.573 283.892,309.447 286.799,308.32 L285.09,311.37 Z M293.118,282.889 C294.245,280.963 295.48,280.129 296.535,280.129 C302.529,280.129 298.06,294.564 288.433,292.334 L287.67,292.334 L293.118,282.889 Z M370.782,296.986 L370.527,297.276 C367.807,300.436 365.153,302.943 363.48,302.943 C362.645,302.943 362.173,302.363 363.043,300.872 L375.832,278.748 L372.053,278.748 L366.496,288.339 C365.842,287.285 364.606,286.377 363.043,286.377 C361.008,286.377 358.176,287.976 356.577,290.736 L352.879,297.116 C352.8,297.07 352.719,297.017 352.645,296.984 L352.39,297.276 C349.667,300.436 347.39,302.942 345.718,302.942 C344.881,302.942 344.411,302.362 345.28,300.872 L350.73,291.317 C352.367,288.447 350.802,286.375 348.696,286.375 C347.06,286.375 345.356,287.246 343.464,289.21 L344.881,286.74 L341.102,286.74 L335.065,297.187 C334.95039,297.110191 334.830034,297.042324 334.705,296.984 L334.449,297.276 C331.726,300.436 329.075,302.942 327.403,302.942 C326.568,302.942 326.097,302.362 326.967,300.872 L333.07,290.19 L330.926,290.19 C331.072,288.592 329.438,286.375 326.966,286.375 C324.931,286.375 322.096,287.974 320.498,290.733 L316.846,297.039 L316.64,297.273 C313.918,300.432 310.89,302.938 309.22,302.938 C308.383,302.938 307.913,302.358 308.783,300.868 L312.561,294.257 C313.868,291.967 313.25,290.624 312.016,289.134 L309.91,286.59 C309.365,285.9 309.365,285.137 310.128,284.41 L308.166,282.267 C306.022,284.194 305.841,286.336 307.184,288.08 L307.513,288.516 C305.841,290.878 303.589,294.076 301.116,296.981 C301.191,297.088 301.28,297.194 301.374,297.301 C298.261,300.881 295.615,303.196 292.644,304.463 L297.439,296.253 L293.661,296.253 L293.262,296.908 C291.264,300.432 288.974,302.939 286.032,302.939 C283.452,302.939 282.982,300.36 285.232,296.509 L286.287,294.657 C286.995106,294.773755 287.711343,294.834277 288.429,294.838 C301.872,294.838 308.375,276.856 296.533,276.856 C294.461,276.856 291.989,278.31 290.283,281.288 L284.398,291.423 C282.182,290.262 281.02,288.155 281.02,286.048 C281.02,284.305 281.82,282.56 283.452,281.29 L282.219,279.073 C279.529,280.999 278.331,283.577 278.331,286.12 C278.331,289.136 280.04,292.042 283.091,293.64 L281.964,295.603 C279.312,300.181 279.784,305.266 285.126,305.266 C286.724,305.266 288.067,304.794 289.231,304.066 L288.248,305.776 C283.128,307.336 279.966,309.407 279.966,312.241 C279.966,315.873 285.526,316.637 288.248,311.987 L291.155,307.01 C295.08,305.775 298.931,303.087 303.073,298.291 C303.005892,298.165377 302.926862,298.046496 302.837,297.936 C304.515,295.965 305.939,294.062 308.787,290.19 L309.294,290.809 C309.767,291.425 309.948,292.189 309.512,292.953 L305.515,299.89 C303.916,302.685 305.043,305.264 308.095,305.264 C309.994,305.264 312.443,304.025 314.48,302.24 C314.436,303.978 315.624,305.264 317.779,305.264 C319.304,305.264 321.194,304.284 323.009,302.794 C323.192,304.248 324.356,305.264 326.279,305.264 C328.089,305.264 330.056,304.139 331.999,302.49 L330.607,304.902 L334.42,304.902 L340.197,294.837 C345.974,287.608 348.554,288.553 346.917,291.35 L342.014,299.888 C340.417,302.686 341.541,305.264 344.592,305.264 C346.602,305.264 348.428,303.88 350.574,301.931 C350.374,303.824 351.578,305.264 353.856,305.264 C355.381,305.264 357.27,304.284 359.088,302.794 C359.27,304.249 360.433,305.264 362.357,305.264 C365.482,305.264 369.077,301.923 372.202,298.288 C371.946,297.784 371.293,297.203 370.782,296.986 Z M258.502,291.681 C260.682,287.939 264.535,288.556 262.281,292.48 L261.736,293.424 C259.919,296.513 257.484,296.439 256.068,295.931 L258.502,291.681 Z M255.451,305.268 C259.738,305.268 263.991,301.927 267.113,298.293 C266.86,297.783 266.205,297.203 265.696,296.985 L265.443,297.277 C262.717,300.437 259.23,302.943 256.576,302.943 C254.251,302.943 252.871,301.49 254.614,298.438 L254.977,297.785 C257.412,298.801 261.989,298.33 264.823,293.425 L265.368,292.481 C267.403,288.992 265.441,286.377 262.352,286.377 C259.302,286.377 256.868,287.975 255.269,290.736 L251.59,297.049 C251.552,297.029 251.514,297.001 251.478,296.985 L251.223,297.277 C248.499,300.437 245.848,302.943 244.176,302.943 C243.34,302.943 242.87,302.363 243.739,300.872 L249.189,291.317 C250.824,288.447 249.261,286.375 247.153,286.375 C245.518,286.375 243.774,287.284 241.887,289.246 L247.917,278.746 L244.139,278.746 L233.483,297.236 C233.347893,297.137606 233.203152,297.053174 233.051,296.984 L232.796,297.275 C230.071,300.436 227.42,302.942 225.748,302.942 C224.913,302.942 224.441,302.362 225.311,300.872 L233.413,286.738 L236.503,286.738 L237.593,284.921 L234.468,284.921 L238.028,278.746 L234.25,278.746 L230.69,284.921 L227.275,284.921 L226.185,286.738 L229.635,286.738 L222.042,299.891 C220.444,302.69 221.57,305.268 224.621,305.268 C226.499,305.268 228.547,304.055 230.561,302.304 L229.062,304.904 L232.877,304.904 L238.617,294.912 C244.43,287.61 247.01,288.555 245.375,291.352 L240.47,299.89 C238.872,302.688 239.998,305.266 243.05,305.266 C245.346,305.266 247.896,303.461 250.326,301.061 C250.436,303.492 252.359,305.268 255.451,305.268 Z M127.98,291.68 C130.16,287.938 134.01,288.555 131.756,292.479 L131.212,293.423 C129.397,296.511 126.961,296.438 125.545,295.929 L127.98,291.68 Z M151.099,300.871 L156.367,291.68 C158.401,288.154 162.434,289.063 160.58,292.479 L157.638,297.638 C155.35,301.233 153.095,302.942 151.534,302.942 C150.7,302.942 150.227,302.361 151.099,300.872 L151.099,300.871 Z M205.083,291.68 C207.263,287.938 211.113,288.555 208.859,292.479 L208.314,293.423 C206.499,296.511 204.064,296.437 202.648,295.929 L205.083,291.68 Z M147.275,301.206 C146.648,303.446 147.845,305.266 150.409,305.266 C151.934,305.266 153.824,304.286 155.639,302.797 C155.822,304.25 156.985,305.267 158.909,305.267 C160.922,305.267 163.127,303.877 165.278,301.921 C164.86,303.963 165.817,305.267 167.678,305.267 C169.751,305.267 172.076,303.377 173.891,301.633 C173.527,303.669 174.728,305.267 177.125,305.267 C180.25,305.267 183.845,301.925 186.97,298.291 C186.945,298.241 186.902,298.19 186.87,298.14 C188.958,295.711 190.8,293.133 192.118,291.39 C190.628,295.312 191.428,302.362 187.83,302.362 C186.56,302.362 186.05,300.98 186.05,300.98 L183.687,302.215 C183.687,302.215 184.377,305.267 187.829,305.267 C188.192,305.267 188.518,305.23 188.883,305.194 C188.92,305.194 188.955,305.159 188.991,305.159 C191.767,304.792 194.52,303.103 196.904,300.95 C196.962,303.436 198.89,305.267 202.029,305.267 C206.316,305.267 210.567,301.926 213.691,298.291 C213.437,297.781 212.783,297.201 212.275,296.983 L212.021,297.275 C209.296,300.435 205.808,302.942 203.158,302.942 C200.832,302.942 199.451,301.488 201.195,298.437 L201.559,297.783 C203.991,298.799 208.569,298.328 211.404,293.423 L211.949,292.48 C213.983,288.991 212.021,286.376 208.934,286.376 C205.884,286.376 203.447,287.974 201.851,290.734 L198.181,297.028 C198.146,297.016 198.111,296.991 198.077,296.982 L197.823,297.273 C196.493811,298.833178 194.966952,300.213469 193.281,301.379 C194.48,297.783 194.226,292.262 196.551,287.428 L193.718,285.902 C192.156,288.045 188.741,292.986 185.325,296.982 C185.358,297.028 185.399,297.073 185.435,297.12 L185.3,297.273 C182.576,300.433 179.924,302.94 178.252,302.94 C177.417,302.94 176.945,302.36 177.816,300.87 L185.881,286.735 L182.102,286.735 L175.382,298.469 C172.512,301.085 170.297,302.538 169.568,302.211 C168.625,301.813 169.568,300.396 170.042,299.596 L177.415,286.736 L173.637,286.736 L167.624,297.141 C167.526,297.081 167.429,297.019 167.337,296.98 L167.083,297.27 C164.358,300.43 161.707,302.937 160.035,302.937 C159.2,302.937 158.728,302.357 159.599,300.867 L165.702,290.185 L163.558,290.185 C163.704,288.587 162.07,286.369 159.598,286.369 C157.564,286.369 154.73,287.969 153.132,290.729 L149.302,297.341 C149.125463,297.197045 148.932037,297.075146 148.726,296.978 L148.472,297.268 C145.748,300.428 142.614,302.935 139.962,302.935 C137.638,302.935 136.256,301.482 137.999,298.431 L141.886,291.675 C144.066,287.933 147.917,288.55 145.663,292.473 L145.118,293.418 L148.208,293.418 L148.752,292.473 C150.786,288.986 148.825,286.369 145.738,286.369 C142.686,286.369 140.604,287.969 139.008,290.729 L135.252,297.172 C135.14184,297.097941 135.025783,297.033057 134.905,296.978 L134.651,297.268 C131.927,300.428 128.704,302.935 126.053,302.935 C123.727,302.935 122.346,301.482 124.09,298.431 L124.453,297.777 C126.887,298.795 131.465,298.322 134.299,293.419 L134.844,292.473 C136.878,288.987 134.916,286.37 131.828,286.37 C128.778,286.37 126.342,287.968 124.745,290.73 L120.785,297.522 C118.422,301.555 120.458,305.26 124.925,305.26 C128.254,305.26 130.938,303.245 133.713,300.643 C133.615,303.28 135.571,305.26 138.834,305.26 C141.922,305.266 144.634,303.532 147.275,301.206 Z M110.403,287.246 L113.454,282.015 C116.214,277.258 119.739,280.053 117.849,283.614 C116.399,286.338 114.254,287.174 110.403,287.247 L110.403,287.246 Z M106.335,304.466 C104.082,304.466 102.302,303.958 100.885,303.16 C101.539,302.396 102.192,301.451 102.775,300.471 L109.131,289.463 L110.148,289.571 C119.014,291.426 115.489,304.466 106.335,304.466 Z M115.671,288.991 C123.3,286.411 123.881,276.856 116.361,276.856 C114.29,276.856 111.82,278.309 110.113,281.288 L99.94,298.872 C99.5202234,299.627175 99.0343213,300.343646 98.488,301.013 C95.872,297.418 96.635,292.042 100.304,289.679 L98.777,287.753 C90.857,292.803 93.183,307.37 106.407,307.37 C117.707,307.372 122.937,293.823 115.671,288.99 L115.671,288.991 Z" id="Shape" fill="#FFFFFF"></path>
                </g>
            </g>
        </g>
    </g>
</svg>